<svg xmlns="http://www.w3.org/2000/svg" version="1.1" xmlns:xlink="http://www.w3.org/1999/xlink" xmlns:svgjs="http://svgjs.dev/svgjs" width="2000" height="1247" viewBox="0 0 2000 1247"><g transform="matrix(1,0,0,1,-1.2121212121212466,0.504858299595071)"><svg viewBox="0 0 396 247" data-background-color="#113f67" preserveAspectRatio="xMidYMid meet" height="1247" width="2000" xmlns="http://www.w3.org/2000/svg" xmlns:xlink="http://www.w3.org/1999/xlink"><g id="tight-bounds" transform="matrix(1,0,0,1,0.2400000000000091,-0.09999999999999432)"><svg viewBox="0 0 395.52 247.2" height="247.2" width="395.52"><g><svg></svg></g><g><svg viewBox="0 0 395.52 247.2" height="247.2" width="395.52"><mask id="da82d56a-6e77-494e-9172-779e1cf57f49"><rect width="395.52" height="247.2" fill="white"></rect><g transform="matrix(1,0,0,1,131.23136363636362,37.08)" id="clone"><svg viewBox="0 0 133.05727272727273 173.04" height="173.04" width="133.05727272727273"><g><svg viewBox="0 0 133.05727272727273 173.04" height="173.04" width="133.05727272727273"><g><svg viewBox="0 0 133.05727272727273 173.04" height="173.04" width="133.05727272727273"><g><svg viewBox="0 0 133.05727272727273 173.04" height="173.04" width="133.05727272727273"><g id="SvgjsG2239"><svg viewBox="0 0 133.05727272727273 173.04" height="173.04" width="133.05727272727273" id="SvgjsSvg2238"><g><svg viewBox="0 0 133.05727272727273 173.04" height="173.04" width="133.05727272727273"><g transform="matrix(1,0,0,1,0,0)"><svg width="133.05727272727273" viewBox="0.04999999999999982 -38.1 31.45 40.6" height="173.04" data-palette-color="#ffffff"><path d="M26.4-9.7L29-9.7 28.55 0 2.55 0 2.55-1.75 7.6-2.3Q7.75-7.05 7.75-16.4L7.75-16.4 7.75-19.15Q7.75-28.75 7.6-33.35L7.6-33.35 2.55-33.9 2.55-35.6 17.05-35.6 17.05-33.9 11.95-33.35Q11.8-28.6 11.8-18.9L11.8-18.9 11.8-15.5Q11.8-6.85 11.95-2.2L11.95-2.2 24.85-2.2 26.4-9.7Z" opacity="1" transform="matrix(1,0,0,1,0,0)" fill="black" class="wordmark-text-0" id="SvgjsPath2237" stroke-width="4" stroke="black" stroke-linejoin="round"></path></svg></g></svg></g></svg></g></svg></g><g></g></svg></g></svg></g></svg></g></mask><g mask="url(#da82d56a-6e77-494e-9172-779e1cf57f49)"><g><path d="M250.997 164.185h13.027l-2.255 48.602h-130.273v-8.768l25.303-2.756c0.501-15.867 0.752-39.416 0.752-70.648v0-13.779c0-32.067-0.251-55.784-0.752-71.15v0l-25.303-2.755v-8.518h72.652v8.518l-25.553 2.755c-0.501 15.867-0.752 40.001-0.752 72.402v0 17.036c0 28.894 0.251 51.107 0.752 66.64v0h64.635z" fill="#ffffff" fill-rule="nonzero" stroke="none" stroke-width="1" stroke-linecap="butt" stroke-linejoin="miter" stroke-miterlimit="10" stroke-dasharray="" stroke-dashoffset="0" font-family="none" font-weight="none" font-size="none" text-anchor="none" style="mix-blend-mode: normal" data-fill-palette-color="tertiary"></path></g></g><g transform="matrix(1,0,0,1,131.23136363636362,37.08)"><svg viewBox="0 0 133.05727272727273 173.04" height="173.04" width="133.05727272727273"><g><svg viewBox="0 0 133.05727272727273 173.04" height="173.04" width="133.05727272727273"><g><svg viewBox="0 0 133.05727272727273 173.04" height="173.04" width="133.05727272727273"><g><svg viewBox="0 0 133.05727272727273 173.04" height="173.04" width="133.05727272727273"><g id="textblocktransform"><svg viewBox="0 0 133.05727272727273 173.04" height="173.04" width="133.05727272727273" id="textblock"><g><svg viewBox="0 0 133.05727272727273 173.04" height="173.04" width="133.05727272727273"><g transform="matrix(1,0,0,1,0,0)"><svg width="133.05727272727273" viewBox="0.04999999999999982 -38.1 31.45 40.6" height="173.04" data-palette-color="#ffffff"><path d="M26.4-9.7L29-9.7 28.55 0 2.55 0 2.55-1.75 7.6-2.3Q7.75-7.05 7.75-16.4L7.75-16.4 7.75-19.15Q7.75-28.75 7.6-33.35L7.6-33.35 2.55-33.9 2.55-35.6 17.05-35.6 17.05-33.9 11.95-33.35Q11.8-28.6 11.8-18.9L11.8-18.9 11.8-15.5Q11.8-6.85 11.95-2.2L11.95-2.2 24.85-2.2 26.4-9.7Z" opacity="1" transform="matrix(1,0,0,1,0,0)" fill="#ffffff" class="wordmark-text-0" data-fill-palette-color="primary" id="text-0"></path></svg></g></svg></g></svg></g></svg></g><g></g></svg></g></svg></g></svg></g></svg></g><defs></defs></svg><rect width="395.52" height="247.2" fill="none" stroke="none" visibility="hidden"></rect></g></svg></g></svg>